<?xml version="1.0" encoding="UTF-8"?>
<svg id="Layer_1" data-name="Layer 1" xmlns="http://www.w3.org/2000/svg" viewBox="0 0 1156.16 556.36">
  <defs>
    <style>
      .cls-1 {
        font-family: Piepie, Piepie;
        font-size: 188.17px;
      }

      .cls-1, .cls-2 {
        fill: #fff;
      }

      .cls-3 {
        fill: #e8ad21;
      }

      .cls-3, .cls-4, .cls-5, .cls-2 {
        stroke-width: 0px;
      }

      .cls-4, .cls-6 {
        fill: #f58921;
      }

      .cls-6 {
        font-family: Brevia-ExtraBlack, Brevia;
        font-size: 201.43px;
        font-weight: 800;
      }

      .cls-7 {
        fill: none;
        stroke: #fff;
        stroke-linecap: round;
        stroke-miterlimit: 10;
        stroke-width: 10px;
      }

      .cls-5 {
        fill: #8e8149;
      }
    </style>
  </defs>
  <path class="cls-3" d="M2.55,356.87c172.22,348.55,608.11,168.59,892,0H2.55ZM703.32,360.05c.96,0,3.09-.18,9.74-.18,3.7,0,8.14,0,10.66.18,5.47.61,6.43,1.81,6.43,3.65,0,4.01-4.09,6.61-12.65,6.61-10.09,0-14.78-2.39-14.78-7.44,0-.79.21-1.81.6-2.82Z"/>
  <path class="cls-3" d="M1156.16,178.71v178.16h-261.61c152.82-90.71,261.61-178.16,261.61-178.16Z"/>
  <ellipse class="cls-2" cx="172.95" cy="410.17" rx="20.76" ry="19.97"/>
  <path class="cls-4" d="M317.74,115.23c41.23,82.79,7.46,183.29-75.43,224.47-82.89,41.18-183.5,7.45-224.73-75.34C-23.65,181.56,10.12,81.06,93.01,39.88c82.89-41.18,183.5-7.45,224.73,75.34Z"/>
  <ellipse class="cls-5" cx="104.63" cy="67.49" rx="17.15" ry="7.93" transform="translate(-19.1 53.57) rotate(-26.4)"/>
  <path class="cls-7" d="M181.92,65.95c21.94,4.38,43.28,12.58,62.96,24.63"/>
  <text class="cls-6" transform="translate(322.2 357.24) scale(.97 1)"><tspan x="0" y="0" xml:space="preserve">r  n</tspan></text>
  <text class="cls-1" transform="translate(244.88 500.68) scale(.66 1)"><tspan x="0" y="0">Fish</tspan></text>
  <text class="cls-6" transform="translate(414.01 355.24) scale(.97 1)"><tspan x="0" y="0">a</tspan></text>
  <text class="cls-6" transform="translate(770.42 355.25) scale(.97 1)"><tspan x="0" y="0">e</tspan></text>
  <path class="cls-4" d="M742.41,329.04c-4.3,0-24.3.61-27.61.61-3.91,0-5.26-1.63-5.26-3.65,0-2.2,1.56-3,4.48-3,29.17,0,49.78-5.46,49.39-28.4-.21-10.48-6.04-18.14-12.08-20.35l.21-1.23c3.69.61,7.57,1.41,12.04,1.23,20.22,0,11.09-27.83,11.09-27.83h-58.52c-45.69,0-55.78,19.15-55.21,40.29.6,28.8,31.87,32.05,31.87,32.05v.98s-22.74-2.82-22.74,18.54c0,15.94,14.21,16.52,14.21,16.52v1.01s-6.11-.69-11.94,1.05c-5.44,1.66-10.62,5.42-10.45,13.88.39,16.7,23.91,20.74,55.61,20.74,37.49,0,58.48-13.3,58.52-34.62v-.04c0-19.12-14.96-27.79-33.61-27.79ZM717.5,370.31c-10.09,0-14.78-2.39-14.78-7.44,0-.79.21-1.81.6-2.82.96,0,3.09-.18,9.74-.18,3.7,0,8.14,0,10.66.18,5.47.61,6.43,1.81,6.43,3.65,0,4.01-4.09,6.61-12.65,6.61ZM713.8,276.07c7.21,0,10.52,4.41,10.52,9.65,0,4.05-2.34,8.28-13.22,8.28-7.99,0-10.52-2.82-10.91-8.28-.39-4.23,1.17-9.65,13.61-9.65Z"/>
</svg>